<?xml version="1.0" standalone="no"?>
<!DOCTYPE svg PUBLIC "-//W3C//DTD SVG 1.1//EN" "http://www.w3.org/Graphics/SVG/1.1/DTD/svg11.dtd">
<svg width="100%" height="100%" viewBox="0 0 170 300" version="1.1" xmlns="http://www.w3.org/2000/svg" xmlns:xlink="http://www.w3.org/1999/xlink" xml:space="preserve" style="fill-rule:evenodd;clip-rule:evenodd;stroke-linecap:round;stroke-linejoin:round;stroke-miterlimit:1.41421;">
    <g transform="matrix(1,0,0,1,-65,0)">
        <g id="Layer2">
            <path d="M126.452,126.665C126.452,126.665 131.546,134.182 135.241,133.515C138.936,132.848 141.797,121.151 141.797,121.151C141.797,121.151 148.66,123.18 151.63,125.33C154.6,127.48 152.026,127.535 157.839,131.657C163.651,135.779 172.999,165.407 174.953,165.351C176.908,165.295 194.287,161.284 199.783,170.372C218.025,200.538 200.583,224.091 198.275,228.445C195.966,232.799 187.236,254.346 187.236,254.346C187.236,254.346 183.875,277.953 185.845,281.684C187.815,285.416 188.048,288.649 188.048,288.649L179.113,289.376C179.113,289.376 180.362,288.548 181.376,283.136C182.391,277.725 176.273,267.302 176.967,263.285C177.661,259.268 184.742,244.812 185.466,238.907C186.19,233.002 184.598,231.809 182.014,236.498C179.431,241.187 177.693,251.804 177.112,253.302C173.496,262.626 172.385,266.563 172.385,266.563C172.385,266.563 177.23,273.108 175.517,275.822C173.803,278.537 170.936,277.954 168.816,277.1C166.697,276.246 166.556,269.828 166.612,265.955C166.668,262.083 167.426,257.085 168.294,251.734C169.163,246.382 169.805,239.182 170.615,237.398C171.424,235.614 176.533,228.516 176.533,228.516C176.533,228.516 169.165,236.828 164.609,237.484C160.053,238.14 153.122,234.843 153.122,234.843C153.122,234.843 158.521,261.96 157.852,269.35C157.182,276.739 154.803,286.833 155.676,288.679C156.548,290.526 158.374,293.816 158.374,293.816L151.296,294.251C151.296,294.251 149.348,293.623 150.859,286.967C152.371,280.311 150.566,276.79 149.612,271.614C148.658,266.438 149.928,268.548 150.743,261.776C151.559,255.003 142.023,245.07 141.781,226.427C141.631,214.828 137.487,207.853 138.068,203.936C139.957,191.188 143.868,180.572 143.868,180.572C143.868,180.572 128.596,192.772 123.331,194.24C118.065,195.709 114.527,197.07 111.728,193.923C108.928,190.776 107.449,183.227 108.276,181.705C109.103,180.183 121.648,161.738 121.648,161.738C121.648,161.738 121.055,156.613 121.504,153.843C121.953,151.074 126.697,148.156 126.697,148.156L126.452,126.665Z" style="fill:rgb(2,0,7);"/>
        </g>
    </g>
    <g transform="matrix(0.351809,0.073289,-0.0867995,0.416663,4.38351,-3.5212)">
        <g transform="matrix(3.16639,-0.377893,0.356485,2.98701,-94.9889,-101.94)">
            <path d="M44.915,45.194L46.744,51.325L50.268,49.43L49.702,53.666L55.62,53.666L50.833,57.456L53.575,60.521L49.702,61.245L51.531,67.375L46.744,63.586L44.915,67.375L43.087,63.586L38.3,67.375L40.128,61.245L36.255,60.521L38.998,57.456L34.211,53.666L40.128,53.666L39.563,49.43L43.087,51.325L44.915,45.194Z" style="fill:rgb(105,78,203);stroke-width:1.68px;stroke:rgb(19,18,22);"/>
        </g>
        <g transform="matrix(0.992954,-0.118504,0.118504,0.992954,-39.2419,-16.5033)">
            <path d="M192.604,268.715C190.394,282.402 207.727,320.707 246.368,341.571C246.606,341.699 286.869,324.332 286.869,324.332C286.869,324.332 281.125,287.871 257.176,281.74" style="fill:rgb(229,25,167);stroke-width:5.18px;stroke:rgb(41,18,18);"/>
        </g>
        <g transform="matrix(0.992954,-0.118504,0.118504,0.992954,-39.2419,-16.5033)">
            <path d="M165.608,229.145C172.009,245.752 171.718,258.559 200.032,273.243C201.35,273.926 202.731,274.614 204.177,275.307C204.177,275.307 206.728,276.756 211.752,278.368C220.125,281.054 235.368,284.19 257.123,281.819C257.632,281.764 246.467,242.421 228.071,239.844" style="fill:rgb(229,25,167);stroke-width:5.18px;stroke:rgb(41,18,18);"/>
        </g>
        <g transform="matrix(0.992954,-0.118504,0.118504,0.992954,-39.2419,-16.5033)">
            <path d="M141.223,182.264C141.223,182.264 147.273,214.697 165.581,229.225C170.094,232.806 175.351,235.299 181.446,235.95C196.449,237.552 208.441,239.824 227.708,239.989C228.197,239.993 219.18,210.454 199.478,202.532" style="fill:rgb(229,25,167);stroke-width:5.18px;stroke:rgb(41,18,18);"/>
        </g>
        <g transform="matrix(0.992954,-0.118504,0.118504,0.992954,-39.2419,-16.5033)">
            <path d="M122.174,142.559C122.174,148.688 128.195,176.185 143.007,183.811C157.818,191.438 198.771,202.634 199.067,202.547C199.364,202.46 184.553,169.028 168.453,164.361" style="fill:rgb(229,25,167);stroke-width:5.18px;stroke:rgb(41,18,18);"/>
        </g>
        <g transform="matrix(0.992954,-0.118504,0.118504,0.992954,-39.2419,-16.5033)">
            <path d="M137.505,129.895C140.176,130.882 142.628,132.048 144.877,133.343C163.767,144.223 168.311,164.233 168.311,164.233C125.538,149.256 110.362,138.164 111.084,117.131" style="fill:rgb(229,25,167);stroke-width:5.18px;stroke:rgb(41,18,18);"/>
        </g>
        <g transform="matrix(0.992954,-0.118504,0.118504,0.992954,-39.2419,-16.5033)">
            <path d="M101.772,96.933C101.241,105.625 105.76,112.413 111.729,117.518C122.19,126.465 137.105,130.245 137.086,130.052C136.596,124.924 134.451,120.506 131.039,117.047C128.349,114.319 124.871,112.187 120.796,110.775" style="fill:rgb(229,25,167);stroke-width:5.18px;stroke:rgb(41,18,18);"/>
        </g>
        <g transform="matrix(0.992954,-0.118504,0.118504,0.992954,-39.2419,-16.5033)">
            <path d="M120.543,110.681C120.922,112.386 109.51,107.011 102.483,97.69C98.672,92.637 97.122,81.038 97.221,81.079C102.822,83.421 106.393,85.989 112.259,92.554C118.124,99.119 119.96,108.051 120.543,110.681Z" style="fill:rgb(229,25,167);stroke-width:5.18px;stroke:rgb(41,18,18);"/>
        </g>
    </g>
</svg>
