<?xml version="1.0" standalone="no"?>
<!DOCTYPE svg PUBLIC "-//W3C//DTD SVG 1.1//EN" "http://www.w3.org/Graphics/SVG/1.1/DTD/svg11.dtd">
<svg width="100%" height="100%" viewBox="0 0 1000 300" version="1.1" xmlns="http://www.w3.org/2000/svg" xmlns:xlink="http://www.w3.org/1999/xlink" xml:space="preserve" style="fill-rule:evenodd;clip-rule:evenodd;stroke-linecap:round;stroke-linejoin:round;stroke-miterlimit:1.41421;">
    <g id="Layer2">
        <path d="M-1.696,114.26C16.383,123.849 8.982,153.358 26.871,163.564C43.848,173.25 58.851,142.15 76.641,154.923C87.334,162.599 93.214,191.234 97.254,190.081C136.178,178.978 131.687,122.485 150.07,94.912C158.464,82.32 185.924,77.949 199.937,75.96C223.091,72.673 218.458,88.408 228.997,102.478C237.431,113.737 245.827,125.13 252.554,137.636C257.857,147.494 261.664,165.513 269.439,173.289C273.108,176.957 283.812,166.184 286.422,163.564C294.55,155.402 301.623,147.75 305.863,136.852C309.278,128.073 309.022,118.356 315.09,110.629C323.57,99.83 339.566,100.681 351.213,97.371C366.224,93.105 379.944,85.107 393.524,78.317C397.127,76.516 411.262,81.635 416.199,81.261C422.332,80.795 426.058,75.899 432.3,76.546C441.401,77.489 469.795,86.755 477.946,92.457C482.555,95.682 485.897,100.654 490.809,103.456C502.591,110.178 514.931,114.383 526.051,122.707C538.275,131.858 547.397,143.8 560.408,151.583C563.906,153.675 567.951,155.2 570.913,158.161C572.202,159.451 571.566,164.883 572.583,163.37C597.585,126.144 617.299,109.609 621.86,60.833C622.651,52.37 629.872,36.56 638.943,38.439C646.684,40.043 641.13,56.24 644.932,60.929C652.927,70.79 667.649,75.809 674.084,86.566C678.299,93.611 674.948,105.43 677.226,113.379C682.279,131.008 697.422,143.626 705.991,159.144C708.277,163.284 707.332,172.471 710.213,175.351C711.204,176.343 723.108,162.414 724.251,160.127C728.058,152.514 748.183,150.105 755.074,150.697C764.628,151.517 806.718,169.584 808.379,169.164C815.347,167.402 830.828,127.3 837.241,120.742C837.545,120.431 840.311,124.355 841.167,124.867C844.373,126.785 850.431,125.752 854.025,125.752C865.145,125.752 880.203,116.868 890.84,119.072C892.88,119.495 893.119,123.525 895.062,124.474C901.371,127.559 914.135,126.386 925.294,131.842C925.407,131.897 925.827,132.04 925.981,131.939C931.743,128.155 949.058,88.313 962.502,77.63C973.914,68.561 994.253,87.693 1001.28,94.718C1011.6,105.044 1004.3,137.537 1004.22,155.513C1003.99,205.928 1003.99,256.346 1003.44,306.759C1003.38,311.655 987.018,313.867 984.194,314.814C963.219,321.847 936.758,325.871 914.692,326.596C885.359,327.561 856.14,332.251 826.833,333.078C801.879,333.783 776.747,332.906 751.836,334.457C730.244,335.802 709.11,340.873 687.533,342.314C661.18,344.074 634.614,343.394 608.217,343.394C545.287,343.394 483.651,336.883 421.209,330.919C402.197,329.103 383.133,323.985 364.076,323.358C347.561,322.814 331.324,325.818 314.794,326.306C288.841,327.071 262.845,324.045 236.849,324.045C207.371,324.045 178.179,326.993 148.695,326.993C111.131,326.993 73.946,321.489 36.49,321.489C25.824,321.489 1.114,321.1 -6.213,312.064C-9.931,307.479 -7.098,270.341 -7.098,262.761C-7.098,226.716 -4.367,191.771 -1.009,156.002C-0.035,145.626 -9.171,128.25 -6.9,121.333C-5.929,118.377 2.133,118.173 2.133,116.521" style="fill:rgb(249,249,249);stroke-width:0.85px;stroke:rgb(1,15,0);"/>
        <g transform="matrix(1.00063,0,0,0.98631,-0.474681,3.86083)">
            <path d="M572.739,161.23C577.253,170.122 581.063,180.242 586.661,188.626C593.009,198.134 604.336,201.558 611.145,210.683C620.576,223.321 630.654,245.069 642.823,254.683C653.404,263.044 667.847,267.624 680.416,271.98C699.779,278.691 718.689,280.905 739.015,281.496C743.334,281.621 758.526,283.651 757.692,278.829" style="fill:none;stroke-width:0.91px;stroke:rgb(1,16,0);"/>
        </g>
        <path d="M710.005,175.392C713.49,185.296 721.893,191.437 724.974,200.819C725.057,201.073 725.459,202.444 725.552,202.444" style="fill:none;stroke-width:0.85px;stroke:rgb(1,16,0);"/>
        <g transform="matrix(0.965815,0,0,0.898197,24.383,22.1338)">
            <path d="M713.255,217.418C739.255,210.817 799.289,186.542 813.39,162.97" style="fill:none;stroke-width:1.02px;stroke:rgb(1,16,0);"/>
        </g>
        <g transform="matrix(1.03465,0,0,1.04073,-35.0054,-7.7147)">
            <path d="M928.26,133.834C949.826,149.39 949.212,169.871 984.536,182.361C988.791,183.865 1010.3,193.642 1010.3,187.236" style="fill:none;stroke-width:0.92px;stroke:rgb(1,16,0);"/>
        </g>
        <g transform="matrix(1.00685,0,0,0.945219,-0.00145933,14.402)">
            <path d="M0.213,262.902C16.367,258.288 41.86,248.721 52.661,233.996C60.244,223.659 65.137,210.914 73.895,201.491C79.033,195.964 84.179,191.709 90.375,187.564C91.778,186.624 97.797,186.227 97.797,185.012" style="fill:none;stroke-width:0.87px;stroke:rgb(1,16,0);"/>
        </g>
        <g transform="matrix(0.947697,0,0,1.03469,5.74001,-1.77307)">
            <path d="M239.474,195.34C251.321,184.049 261.785,175.451 277.416,172.241C279.248,171.865 279.505,171.03 279.505,169.105" style="fill:none;stroke-width:1.01px;stroke:rgb(1,16,0);"/>
        </g>
    </g>
</svg>
