<?xml version="1.0" standalone="no"?>
<!DOCTYPE svg PUBLIC "-//W3C//DTD SVG 1.1//EN" "http://www.w3.org/Graphics/SVG/1.1/DTD/svg11.dtd">
<svg width="100%" height="100%" viewBox="0 0 1000 160" version="1.1" xmlns="http://www.w3.org/2000/svg" xmlns:xlink="http://www.w3.org/1999/xlink" xml:space="preserve" style="fill-rule:evenodd;clip-rule:evenodd;stroke-linejoin:round;stroke-miterlimit:1.41421;">
    <g transform="matrix(1,0,0,1,0,-141)">
        <g id="Layer2">
            <g>
                <g transform="matrix(1,0,0,1,-1.18259,-2.51793)">
                    <g transform="matrix(1,0,0,1,1.27898e-13,-13.3965)">
                        <path d="M43.37,182.376L58.462,234.349L28.278,234.349L43.37,182.376Z" style="fill:rgb(7,26,5);"/>
                    </g>
                    <g transform="matrix(1.39692,0,0,0.538444,-17.2145,107.884)">
                        <path d="M43.37,182.376L58.462,234.349L28.278,234.349L43.37,182.376Z" style="fill:rgb(7,26,5);"/>
                    </g>
                    <g transform="matrix(1.69742,0,0,0.475272,-30.2474,132.733)">
                        <path d="M43.37,182.376L58.462,234.349L28.278,234.349L43.37,182.376Z" style="fill:rgb(7,26,5);"/>
                    </g>
                    <g transform="matrix(1.85234,0,0,0.482266,-36.9659,140.092)">
                        <path d="M43.37,182.376L58.462,234.349L28.278,234.349L43.37,182.376Z" style="fill:rgb(7,26,5);"/>
                    </g>
                    <g transform="matrix(2.152,0,0,0.547542,-49.9623,137.256)">
                        <path d="M43.37,182.376L58.462,234.349L28.278,234.349L43.37,182.376Z" style="fill:rgb(7,26,5);"/>
                    </g>
                    <g transform="matrix(2.43801,0,0,0.59944,-62.3666,136.447)">
                        <path d="M43.37,182.376L58.462,234.349L28.278,234.349L43.37,182.376Z" style="fill:rgb(7,26,5);"/>
                    </g>
                    <g transform="matrix(2.79539,0,0,0.638749,-77.8664,137.106)">
                        <path d="M43.37,182.376L58.462,234.349L28.278,234.349L43.37,182.376Z" style="fill:rgb(7,26,5);"/>
                    </g>
                    <g transform="matrix(1,0,0,1,6.88574,0)">
                        <path d="M42.226,282.534C42.226,280.95 40.939,279.663 39.355,279.663L33.614,279.663C32.029,279.663 30.743,280.95 30.743,282.534L30.743,302.867C30.743,304.451 32.029,305.738 33.614,305.738L39.355,305.738C40.939,305.738 42.226,304.451 42.226,302.867L42.226,282.534Z" style="fill:rgb(7,26,5);"/>
                    </g>
                </g>
                <g transform="matrix(1,0,0,1,91.4698,-2.51793)">
                    <g transform="matrix(1,0,0,1,1.27898e-13,-13.3965)">
                        <path d="M43.37,182.376L58.462,234.349L28.278,234.349L43.37,182.376Z" style="fill:rgb(7,26,5);"/>
                    </g>
                    <g transform="matrix(1.39692,0,0,0.538444,-17.2145,107.884)">
                        <path d="M43.37,182.376L58.462,234.349L28.278,234.349L43.37,182.376Z" style="fill:rgb(7,26,5);"/>
                    </g>
                    <g transform="matrix(1.69742,0,0,0.475272,-30.2474,132.733)">
                        <path d="M43.37,182.376L58.462,234.349L28.278,234.349L43.37,182.376Z" style="fill:rgb(7,26,5);"/>
                    </g>
                    <g transform="matrix(1.85234,0,0,0.482266,-36.9659,140.092)">
                        <path d="M43.37,182.376L58.462,234.349L28.278,234.349L43.37,182.376Z" style="fill:rgb(7,26,5);"/>
                    </g>
                    <g transform="matrix(2.152,0,0,0.547542,-49.9623,137.256)">
                        <path d="M43.37,182.376L58.462,234.349L28.278,234.349L43.37,182.376Z" style="fill:rgb(7,26,5);"/>
                    </g>
                    <g transform="matrix(2.43801,0,0,0.59944,-62.3666,136.447)">
                        <path d="M43.37,182.376L58.462,234.349L28.278,234.349L43.37,182.376Z" style="fill:rgb(7,26,5);"/>
                    </g>
                    <g transform="matrix(2.79539,0,0,0.638749,-77.8664,137.106)">
                        <path d="M43.37,182.376L58.462,234.349L28.278,234.349L43.37,182.376Z" style="fill:rgb(7,26,5);"/>
                    </g>
                    <g transform="matrix(1,0,0,1,6.88574,0)">
                        <path d="M42.226,282.534C42.226,280.95 40.939,279.663 39.355,279.663L33.614,279.663C32.029,279.663 30.743,280.95 30.743,282.534L30.743,302.867C30.743,304.451 32.029,305.738 33.614,305.738L39.355,305.738C40.939,305.738 42.226,304.451 42.226,302.867L42.226,282.534Z" style="fill:rgb(7,26,5);"/>
                    </g>
                </g>
                <g transform="matrix(1,0,0,1,179.334,-2.51793)">
                    <g transform="matrix(1,0,0,1,1.27898e-13,-13.3965)">
                        <path d="M43.37,182.376L58.462,234.349L28.278,234.349L43.37,182.376Z" style="fill:rgb(7,26,5);"/>
                    </g>
                    <g transform="matrix(1.39692,0,0,0.538444,-17.2145,107.884)">
                        <path d="M43.37,182.376L58.462,234.349L28.278,234.349L43.37,182.376Z" style="fill:rgb(7,26,5);"/>
                    </g>
                    <g transform="matrix(1.69742,0,0,0.475272,-30.2474,132.733)">
                        <path d="M43.37,182.376L58.462,234.349L28.278,234.349L43.37,182.376Z" style="fill:rgb(7,26,5);"/>
                    </g>
                    <g transform="matrix(1.85234,0,0,0.482266,-36.9659,140.092)">
                        <path d="M43.37,182.376L58.462,234.349L28.278,234.349L43.37,182.376Z" style="fill:rgb(7,26,5);"/>
                    </g>
                    <g transform="matrix(2.152,0,0,0.547542,-49.9623,137.256)">
                        <path d="M43.37,182.376L58.462,234.349L28.278,234.349L43.37,182.376Z" style="fill:rgb(7,26,5);"/>
                    </g>
                    <g transform="matrix(2.43801,0,0,0.59944,-62.3666,136.447)">
                        <path d="M43.37,182.376L58.462,234.349L28.278,234.349L43.37,182.376Z" style="fill:rgb(7,26,5);"/>
                    </g>
                    <g transform="matrix(2.79539,0,0,0.638749,-77.8664,137.106)">
                        <path d="M43.37,182.376L58.462,234.349L28.278,234.349L43.37,182.376Z" style="fill:rgb(7,26,5);"/>
                    </g>
                    <g transform="matrix(1,0,0,1,6.88574,0)">
                        <path d="M42.226,282.534C42.226,280.95 40.939,279.663 39.355,279.663L33.614,279.663C32.029,279.663 30.743,280.95 30.743,282.534L30.743,302.867C30.743,304.451 32.029,305.738 33.614,305.738L39.355,305.738C40.939,305.738 42.226,304.451 42.226,302.867L42.226,282.534Z" style="fill:rgb(7,26,5);"/>
                    </g>
                </g>
                <g transform="matrix(1,0,0,1,269.709,-2.51793)">
                    <g transform="matrix(1,0,0,1,1.27898e-13,-13.3965)">
                        <path d="M43.37,182.376L58.462,234.349L28.278,234.349L43.37,182.376Z" style="fill:rgb(7,26,5);"/>
                    </g>
                    <g transform="matrix(1.39692,0,0,0.538444,-17.2145,107.884)">
                        <path d="M43.37,182.376L58.462,234.349L28.278,234.349L43.37,182.376Z" style="fill:rgb(7,26,5);"/>
                    </g>
                    <g transform="matrix(1.69742,0,0,0.475272,-30.2474,132.733)">
                        <path d="M43.37,182.376L58.462,234.349L28.278,234.349L43.37,182.376Z" style="fill:rgb(7,26,5);"/>
                    </g>
                    <g transform="matrix(1.85234,0,0,0.482266,-36.9659,140.092)">
                        <path d="M43.37,182.376L58.462,234.349L28.278,234.349L43.37,182.376Z" style="fill:rgb(7,26,5);"/>
                    </g>
                    <g transform="matrix(2.152,0,0,0.547542,-49.9623,137.256)">
                        <path d="M43.37,182.376L58.462,234.349L28.278,234.349L43.37,182.376Z" style="fill:rgb(7,26,5);"/>
                    </g>
                    <g transform="matrix(2.43801,0,0,0.59944,-62.3666,136.447)">
                        <path d="M43.37,182.376L58.462,234.349L28.278,234.349L43.37,182.376Z" style="fill:rgb(7,26,5);"/>
                    </g>
                    <g transform="matrix(2.79539,0,0,0.638749,-77.8664,137.106)">
                        <path d="M43.37,182.376L58.462,234.349L28.278,234.349L43.37,182.376Z" style="fill:rgb(7,26,5);"/>
                    </g>
                    <g transform="matrix(1,0,0,1,6.88574,0)">
                        <path d="M42.226,282.534C42.226,280.95 40.939,279.663 39.355,279.663L33.614,279.663C32.029,279.663 30.743,280.95 30.743,282.534L30.743,302.867C30.743,304.451 32.029,305.738 33.614,305.738L39.355,305.738C40.939,305.738 42.226,304.451 42.226,302.867L42.226,282.534Z" style="fill:rgb(7,26,5);"/>
                    </g>
                </g>
                <g transform="matrix(1,0,0,1,358.442,-2.51793)">
                    <g transform="matrix(1,0,0,1,1.27898e-13,-13.3965)">
                        <path d="M43.37,182.376L58.462,234.349L28.278,234.349L43.37,182.376Z" style="fill:rgb(7,26,5);"/>
                    </g>
                    <g transform="matrix(1.39692,0,0,0.538444,-17.2145,107.884)">
                        <path d="M43.37,182.376L58.462,234.349L28.278,234.349L43.37,182.376Z" style="fill:rgb(7,26,5);"/>
                    </g>
                    <g transform="matrix(1.69742,0,0,0.475272,-30.2474,132.733)">
                        <path d="M43.37,182.376L58.462,234.349L28.278,234.349L43.37,182.376Z" style="fill:rgb(7,26,5);"/>
                    </g>
                    <g transform="matrix(1.85234,0,0,0.482266,-36.9659,140.092)">
                        <path d="M43.37,182.376L58.462,234.349L28.278,234.349L43.37,182.376Z" style="fill:rgb(7,26,5);"/>
                    </g>
                    <g transform="matrix(2.152,0,0,0.547542,-49.9623,137.256)">
                        <path d="M43.37,182.376L58.462,234.349L28.278,234.349L43.37,182.376Z" style="fill:rgb(7,26,5);"/>
                    </g>
                    <g transform="matrix(2.43801,0,0,0.59944,-62.3666,136.447)">
                        <path d="M43.37,182.376L58.462,234.349L28.278,234.349L43.37,182.376Z" style="fill:rgb(7,26,5);"/>
                    </g>
                    <g transform="matrix(2.79539,0,0,0.638749,-77.8664,137.106)">
                        <path d="M43.37,182.376L58.462,234.349L28.278,234.349L43.37,182.376Z" style="fill:rgb(7,26,5);"/>
                    </g>
                    <g transform="matrix(1,0,0,1,6.88574,0)">
                        <path d="M42.226,282.534C42.226,280.95 40.939,279.663 39.355,279.663L33.614,279.663C32.029,279.663 30.743,280.95 30.743,282.534L30.743,302.867C30.743,304.451 32.029,305.738 33.614,305.738L39.355,305.738C40.939,305.738 42.226,304.451 42.226,302.867L42.226,282.534Z" style="fill:rgb(7,26,5);"/>
                    </g>
                </g>
                <g transform="matrix(1,0,0,1,450.535,-2.51793)">
                    <g transform="matrix(1,0,0,1,1.27898e-13,-13.3965)">
                        <path d="M43.37,182.376L58.462,234.349L28.278,234.349L43.37,182.376Z" style="fill:rgb(7,26,5);"/>
                    </g>
                    <g transform="matrix(1.39692,0,0,0.538444,-17.2145,107.884)">
                        <path d="M43.37,182.376L58.462,234.349L28.278,234.349L43.37,182.376Z" style="fill:rgb(7,26,5);"/>
                    </g>
                    <g transform="matrix(1.69742,0,0,0.475272,-30.2474,132.733)">
                        <path d="M43.37,182.376L58.462,234.349L28.278,234.349L43.37,182.376Z" style="fill:rgb(7,26,5);"/>
                    </g>
                    <g transform="matrix(1.85234,0,0,0.482266,-36.9659,140.092)">
                        <path d="M43.37,182.376L58.462,234.349L28.278,234.349L43.37,182.376Z" style="fill:rgb(7,26,5);"/>
                    </g>
                    <g transform="matrix(2.152,0,0,0.547542,-49.9623,137.256)">
                        <path d="M43.37,182.376L58.462,234.349L28.278,234.349L43.37,182.376Z" style="fill:rgb(7,26,5);"/>
                    </g>
                    <g transform="matrix(2.43801,0,0,0.59944,-62.3666,136.447)">
                        <path d="M43.37,182.376L58.462,234.349L28.278,234.349L43.37,182.376Z" style="fill:rgb(7,26,5);"/>
                    </g>
                    <g transform="matrix(2.79539,0,0,0.638749,-77.8664,137.106)">
                        <path d="M43.37,182.376L58.462,234.349L28.278,234.349L43.37,182.376Z" style="fill:rgb(7,26,5);"/>
                    </g>
                    <g transform="matrix(1,0,0,1,6.88574,0)">
                        <path d="M42.226,282.534C42.226,280.95 40.939,279.663 39.355,279.663L33.614,279.663C32.029,279.663 30.743,280.95 30.743,282.534L30.743,302.867C30.743,304.451 32.029,305.738 33.614,305.738L39.355,305.738C40.939,305.738 42.226,304.451 42.226,302.867L42.226,282.534Z" style="fill:rgb(7,26,5);"/>
                    </g>
                </g>
                <g transform="matrix(1,0,0,1,547.28,-2.51793)">
                    <g transform="matrix(1,0,0,1,1.27898e-13,-13.3965)">
                        <path d="M43.37,182.376L58.462,234.349L28.278,234.349L43.37,182.376Z" style="fill:rgb(7,26,5);"/>
                    </g>
                    <g transform="matrix(1.39692,0,0,0.538444,-17.2145,107.884)">
                        <path d="M43.37,182.376L58.462,234.349L28.278,234.349L43.37,182.376Z" style="fill:rgb(7,26,5);"/>
                    </g>
                    <g transform="matrix(1.69742,0,0,0.475272,-30.2474,132.733)">
                        <path d="M43.37,182.376L58.462,234.349L28.278,234.349L43.37,182.376Z" style="fill:rgb(7,26,5);"/>
                    </g>
                    <g transform="matrix(1.85234,0,0,0.482266,-36.9659,140.092)">
                        <path d="M43.37,182.376L58.462,234.349L28.278,234.349L43.37,182.376Z" style="fill:rgb(7,26,5);"/>
                    </g>
                    <g transform="matrix(2.152,0,0,0.547542,-49.9623,137.256)">
                        <path d="M43.37,182.376L58.462,234.349L28.278,234.349L43.37,182.376Z" style="fill:rgb(7,26,5);"/>
                    </g>
                    <g transform="matrix(2.43801,0,0,0.59944,-62.3666,136.447)">
                        <path d="M43.37,182.376L58.462,234.349L28.278,234.349L43.37,182.376Z" style="fill:rgb(7,26,5);"/>
                    </g>
                    <g transform="matrix(2.79539,0,0,0.638749,-77.8664,137.106)">
                        <path d="M43.37,182.376L58.462,234.349L28.278,234.349L43.37,182.376Z" style="fill:rgb(7,26,5);"/>
                    </g>
                    <g transform="matrix(1,0,0,1,6.88574,0)">
                        <path d="M42.226,282.534C42.226,280.95 40.939,279.663 39.355,279.663L33.614,279.663C32.029,279.663 30.743,280.95 30.743,282.534L30.743,302.867C30.743,304.451 32.029,305.738 33.614,305.738L39.355,305.738C40.939,305.738 42.226,304.451 42.226,302.867L42.226,282.534Z" style="fill:rgb(7,26,5);"/>
                    </g>
                </g>
                <g transform="matrix(1,0,0,1,638.655,-2.51793)">
                    <g transform="matrix(1,0,0,1,1.27898e-13,-13.3965)">
                        <path d="M43.37,182.376L58.462,234.349L28.278,234.349L43.37,182.376Z" style="fill:rgb(7,26,5);"/>
                    </g>
                    <g transform="matrix(1.39692,0,0,0.538444,-17.2145,107.884)">
                        <path d="M43.37,182.376L58.462,234.349L28.278,234.349L43.37,182.376Z" style="fill:rgb(7,26,5);"/>
                    </g>
                    <g transform="matrix(1.69742,0,0,0.475272,-30.2474,132.733)">
                        <path d="M43.37,182.376L58.462,234.349L28.278,234.349L43.37,182.376Z" style="fill:rgb(7,26,5);"/>
                    </g>
                    <g transform="matrix(1.85234,0,0,0.482266,-36.9659,140.092)">
                        <path d="M43.37,182.376L58.462,234.349L28.278,234.349L43.37,182.376Z" style="fill:rgb(7,26,5);"/>
                    </g>
                    <g transform="matrix(2.152,0,0,0.547542,-49.9623,137.256)">
                        <path d="M43.37,182.376L58.462,234.349L28.278,234.349L43.37,182.376Z" style="fill:rgb(7,26,5);"/>
                    </g>
                    <g transform="matrix(2.43801,0,0,0.59944,-62.3666,136.447)">
                        <path d="M43.37,182.376L58.462,234.349L28.278,234.349L43.37,182.376Z" style="fill:rgb(7,26,5);"/>
                    </g>
                    <g transform="matrix(2.79539,0,0,0.638749,-77.8664,137.106)">
                        <path d="M43.37,182.376L58.462,234.349L28.278,234.349L43.37,182.376Z" style="fill:rgb(7,26,5);"/>
                    </g>
                    <g transform="matrix(1,0,0,1,6.88574,0)">
                        <path d="M42.226,282.534C42.226,280.95 40.939,279.663 39.355,279.663L33.614,279.663C32.029,279.663 30.743,280.95 30.743,282.534L30.743,302.867C30.743,304.451 32.029,305.738 33.614,305.738L39.355,305.738C40.939,305.738 42.226,304.451 42.226,302.867L42.226,282.534Z" style="fill:rgb(7,26,5);"/>
                    </g>
                </g>
                <g transform="matrix(1,0,0,1,730.084,-2.51793)">
                    <g transform="matrix(1,0,0,1,1.27898e-13,-13.3965)">
                        <path d="M43.37,182.376L58.462,234.349L28.278,234.349L43.37,182.376Z" style="fill:rgb(7,26,5);"/>
                    </g>
                    <g transform="matrix(1.39692,0,0,0.538444,-17.2145,107.884)">
                        <path d="M43.37,182.376L58.462,234.349L28.278,234.349L43.37,182.376Z" style="fill:rgb(7,26,5);"/>
                    </g>
                    <g transform="matrix(1.69742,0,0,0.475272,-30.2474,132.733)">
                        <path d="M43.37,182.376L58.462,234.349L28.278,234.349L43.37,182.376Z" style="fill:rgb(7,26,5);"/>
                    </g>
                    <g transform="matrix(1.85234,0,0,0.482266,-36.9659,140.092)">
                        <path d="M43.37,182.376L58.462,234.349L28.278,234.349L43.37,182.376Z" style="fill:rgb(7,26,5);"/>
                    </g>
                    <g transform="matrix(2.152,0,0,0.547542,-49.9623,137.256)">
                        <path d="M43.37,182.376L58.462,234.349L28.278,234.349L43.37,182.376Z" style="fill:rgb(7,26,5);"/>
                    </g>
                    <g transform="matrix(2.43801,0,0,0.59944,-62.3666,136.447)">
                        <path d="M43.37,182.376L58.462,234.349L28.278,234.349L43.37,182.376Z" style="fill:rgb(7,26,5);"/>
                    </g>
                    <g transform="matrix(2.79539,0,0,0.638749,-77.8664,137.106)">
                        <path d="M43.37,182.376L58.462,234.349L28.278,234.349L43.37,182.376Z" style="fill:rgb(7,26,5);"/>
                    </g>
                    <g transform="matrix(1,0,0,1,6.88574,0)">
                        <path d="M42.226,282.534C42.226,280.95 40.939,279.663 39.355,279.663L33.614,279.663C32.029,279.663 30.743,280.95 30.743,282.534L30.743,302.867C30.743,304.451 32.029,305.738 33.614,305.738L39.355,305.738C40.939,305.738 42.226,304.451 42.226,302.867L42.226,282.534Z" style="fill:rgb(7,26,5);"/>
                    </g>
                </g>
                <g transform="matrix(1,0,0,1,823.559,-2.51793)">
                    <g transform="matrix(1,0,0,1,1.27898e-13,-13.3965)">
                        <path d="M43.37,182.376L58.462,234.349L28.278,234.349L43.37,182.376Z" style="fill:rgb(7,26,5);"/>
                    </g>
                    <g transform="matrix(1.39692,0,0,0.538444,-17.2145,107.884)">
                        <path d="M43.37,182.376L58.462,234.349L28.278,234.349L43.37,182.376Z" style="fill:rgb(7,26,5);"/>
                    </g>
                    <g transform="matrix(1.69742,0,0,0.475272,-30.2474,132.733)">
                        <path d="M43.37,182.376L58.462,234.349L28.278,234.349L43.37,182.376Z" style="fill:rgb(7,26,5);"/>
                    </g>
                    <g transform="matrix(1.85234,0,0,0.482266,-36.9659,140.092)">
                        <path d="M43.37,182.376L58.462,234.349L28.278,234.349L43.37,182.376Z" style="fill:rgb(7,26,5);"/>
                    </g>
                    <g transform="matrix(2.152,0,0,0.547542,-49.9623,137.256)">
                        <path d="M43.37,182.376L58.462,234.349L28.278,234.349L43.37,182.376Z" style="fill:rgb(7,26,5);"/>
                    </g>
                    <g transform="matrix(2.43801,0,0,0.59944,-62.3666,136.447)">
                        <path d="M43.37,182.376L58.462,234.349L28.278,234.349L43.37,182.376Z" style="fill:rgb(7,26,5);"/>
                    </g>
                    <g transform="matrix(2.79539,0,0,0.638749,-77.8664,137.106)">
                        <path d="M43.37,182.376L58.462,234.349L28.278,234.349L43.37,182.376Z" style="fill:rgb(7,26,5);"/>
                    </g>
                    <g transform="matrix(1,0,0,1,6.88574,0)">
                        <path d="M42.226,282.534C42.226,280.95 40.939,279.663 39.355,279.663L33.614,279.663C32.029,279.663 30.743,280.95 30.743,282.534L30.743,302.867C30.743,304.451 32.029,305.738 33.614,305.738L39.355,305.738C40.939,305.738 42.226,304.451 42.226,302.867L42.226,282.534Z" style="fill:rgb(7,26,5);"/>
                    </g>
                </g>
                <g transform="matrix(1,0,0,1,913.875,-2.51793)">
                    <g transform="matrix(1,0,0,1,1.27898e-13,-13.3965)">
                        <path d="M43.37,182.376L58.462,234.349L28.278,234.349L43.37,182.376Z" style="fill:rgb(7,26,5);"/>
                    </g>
                    <g transform="matrix(1.39692,0,0,0.538444,-17.2145,107.884)">
                        <path d="M43.37,182.376L58.462,234.349L28.278,234.349L43.37,182.376Z" style="fill:rgb(7,26,5);"/>
                    </g>
                    <g transform="matrix(1.69742,0,0,0.475272,-30.2474,132.733)">
                        <path d="M43.37,182.376L58.462,234.349L28.278,234.349L43.37,182.376Z" style="fill:rgb(7,26,5);"/>
                    </g>
                    <g transform="matrix(1.85234,0,0,0.482266,-36.9659,140.092)">
                        <path d="M43.37,182.376L58.462,234.349L28.278,234.349L43.37,182.376Z" style="fill:rgb(7,26,5);"/>
                    </g>
                    <g transform="matrix(2.152,0,0,0.547542,-49.9623,137.256)">
                        <path d="M43.37,182.376L58.462,234.349L28.278,234.349L43.37,182.376Z" style="fill:rgb(7,26,5);"/>
                    </g>
                    <g transform="matrix(2.43801,0,0,0.59944,-62.3666,136.447)">
                        <path d="M43.37,182.376L58.462,234.349L28.278,234.349L43.37,182.376Z" style="fill:rgb(7,26,5);"/>
                    </g>
                    <g transform="matrix(2.79539,0,0,0.638749,-77.8664,137.106)">
                        <path d="M43.37,182.376L58.462,234.349L28.278,234.349L43.37,182.376Z" style="fill:rgb(7,26,5);"/>
                    </g>
                    <g transform="matrix(1,0,0,1,6.88574,0)">
                        <path d="M42.226,282.534C42.226,280.95 40.939,279.663 39.355,279.663L33.614,279.663C32.029,279.663 30.743,280.95 30.743,282.534L30.743,302.867C30.743,304.451 32.029,305.738 33.614,305.738L39.355,305.738C40.939,305.738 42.226,304.451 42.226,302.867L42.226,282.534Z" style="fill:rgb(7,26,5);"/>
                    </g>
                </g>
            </g>
        </g>
    </g>
</svg>
